<svg width="1920" height="980" viewBox="0 0 1920 980" fill="none" xmlns="http://www.w3.org/2000/svg">
<rect width="1920" height="980" fill="#6B6B6F"/>
<g id="Frame 2131329281">
<g id="block_001">
<rect width="1920" height="980" fill="black"/>
<text id="&#208;&#159;&#209;&#128;&#208;&#181;&#208;&#184;&#208;&#188;&#209;&#131;&#209;&#137;&#208;&#181;&#209;&#129;&#209;&#130;&#208;&#178;&#208;&#176; &#208;&#191;&#208;&#176;&#209;&#128;&#209;&#130;&#208;&#189;&#209;&#145;&#209;&#128;&#209;&#129;&#208;&#186;&#208;&#190;&#208;&#185; &#208;&#191;&#209;&#128;&#208;&#190;&#208;&#179;&#209;&#128;&#208;&#176;&#208;&#188;&#208;&#188;&#209;&#139;" fill="white" style="white-space: pre" xml:space="preserve" font-family="Onest" font-size="48" font-weight="600" letter-spacing="0em"><tspan x="278" y="186.46">&#x41f;&#x440;&#x435;&#x438;&#x43c;&#x443;&#x449;&#x435;&#x441;&#x442;&#x432;&#x430; </tspan><tspan x="278" y="247.46">&#x43f;&#x430;&#x440;&#x442;&#x43d;&#x451;&#x440;&#x441;&#x43a;&#x43e;&#x439; &#x43f;&#x440;&#x43e;&#x433;&#x440;&#x430;&#x43c;&#x43c;&#x44b;</tspan></text>
<g id="Frame 2131329238">
<g id="Frame 2131329245">
<g id="1448">
<g id="Rectangle 9684">
<rect y="0.53706" width="394.92" height="218.964" rx="40.2821" transform="matrix(-0.866044 0.499967 0.866044 0.499967 694.483 503.273)" fill="black"/>
<rect y="0.53706" width="394.92" height="218.964" rx="40.2821" transform="matrix(-0.866044 0.499967 0.866044 0.499967 694.483 503.273)" fill="black"/>
<rect y="0.53706" width="394.92" height="218.964" rx="40.2821" transform="matrix(-0.866044 0.499967 0.866044 0.499967 694.483 503.273)" stroke="#E8E8E8" stroke-width="1.07419"/>
</g>
<g id="Rectangle 9701">
<rect y="0.53706" width="382.298" height="206.902" rx="40.2821" transform="matrix(-0.866044 0.499967 0.866044 0.499967 694.419 503.229)" fill="black"/>
<rect y="0.53706" width="382.298" height="206.902" rx="40.2821" transform="matrix(-0.866044 0.499967 0.866044 0.499967 694.419 503.229)" fill="black"/>
<rect y="0.53706" width="382.298" height="206.902" rx="40.2821" transform="matrix(-0.866044 0.499967 0.866044 0.499967 694.419 503.229)" stroke="#E8E8E8" stroke-width="1.07419"/>
</g>
<g id="&#208;&#144;&#208;&#189;&#208;&#184;&#208;&#188;&#208;&#176;&#209;&#134;&#208;&#184;&#209;&#143;">
<path id="Vector 2841" d="M368.771 667.11C368.709 667.7 369.138 668.228 369.728 668.29C370.318 668.352 370.846 667.923 370.908 667.333L369.84 667.222L368.771 667.11ZM439.125 542.078L438.059 541.943L439.125 542.078ZM479.095 483.974L478.194 484.559L479.095 483.974ZM504.919 396.794C504.919 396.201 504.438 395.72 503.845 395.72C503.251 395.72 502.77 396.201 502.77 396.794H503.845H504.919ZM380.044 590.417L381.109 590.559L380.044 590.417ZM410.39 573.901L409.409 574.338C411.754 579.607 414.49 583.215 417.519 584.77C419.065 585.564 420.685 585.819 422.315 585.477C423.928 585.138 425.464 584.231 426.9 582.849C429.752 580.106 432.371 575.339 434.621 568.635C436.879 561.904 438.8 553.114 440.19 542.214L439.125 542.078L438.059 541.943C436.681 552.75 434.784 561.393 432.584 567.951C430.375 574.535 427.893 578.913 425.411 581.301C424.181 582.484 422.991 583.139 421.873 583.374C420.77 583.606 419.65 583.449 418.501 582.859C416.139 581.646 413.658 578.602 411.372 573.464L410.39 573.901ZM439.125 542.078L440.19 542.214C443.591 515.542 448.925 494.08 455.622 482.865C458.993 477.22 462.487 474.532 465.959 474.582C469.466 474.633 473.585 477.473 478.194 484.559L479.095 483.974L479.995 483.388C475.322 476.203 470.655 472.501 465.99 472.434C461.291 472.366 457.229 475.983 453.778 481.763C446.831 493.396 441.462 515.258 438.059 541.943L439.125 542.078ZM479.095 483.974L478.194 484.559C480.976 488.836 483.614 491.38 486.197 492.126C487.536 492.513 488.827 492.406 490.026 491.851C491.199 491.309 492.226 490.365 493.131 489.167C494.929 486.784 496.413 483.172 497.658 478.819C498.91 474.442 499.948 469.219 500.809 463.54C504.25 440.842 504.919 410.497 504.919 396.794H503.845H502.77C502.77 410.477 502.1 440.688 498.684 463.218C497.831 468.846 496.81 473.972 495.592 478.228C494.368 482.508 492.972 485.812 491.416 487.872C490.643 488.895 489.874 489.555 489.124 489.902C488.399 490.237 487.64 490.307 486.793 490.062C485.005 489.546 482.732 487.596 479.995 483.388L479.095 483.974ZM369.84 667.222L370.908 667.333C373.323 644.258 378.913 606.971 381.109 590.559L380.044 590.417L378.98 590.275C376.793 606.618 371.19 643.995 368.771 667.11L369.84 667.222ZM380.044 590.417L381.109 590.559C382.263 581.936 384.139 575.377 386.412 570.708C388.693 566.022 391.315 563.359 393.893 562.308C396.404 561.284 399.081 561.708 401.758 563.677C404.469 565.67 407.135 569.231 409.409 574.338L410.39 573.901L411.372 573.464C409.013 568.165 406.151 564.24 403.031 561.946C399.877 559.626 396.418 558.959 393.082 560.318C389.814 561.651 386.877 564.845 384.48 569.768C382.075 574.709 380.152 581.51 378.98 590.275L380.044 590.417Z" fill="#545454"/>
<circle id="Ellipse 800" cx="464.387" cy="474.27" r="4.02821" fill="#545454" stroke="#545454" stroke-width="0.268547"/>
<circle id="Ellipse 802" cx="394.565" cy="561.011" r="4.02821" fill="#545454" stroke="#545454" stroke-width="0.268547"/>
<circle id="Ellipse 803" cx="369.588" cy="668.43" r="4.02821" fill="#545454" stroke="#545454" stroke-width="0.268547"/>
<circle id="Ellipse 801" cx="503.607" cy="397.197" r="4.02821" fill="#545454" stroke="#545454" stroke-width="0.268547"/>
<rect id="Rectangle 9691" opacity="0.1" width="16.3137" height="37.6834" rx="8.15684" transform="matrix(0.86597 -0.500096 0.86597 0.500096 820.731 527.411)" fill="white"/>
<rect id="Rectangle 9692" opacity="0.1" width="16.3137" height="37.6834" rx="8.15684" transform="matrix(0.86597 -0.500096 0.86597 0.500096 800.859 538.958)" fill="white"/>
<rect id="Rectangle 9700" opacity="0.1" width="10.0826" height="87.502" rx="5.04131" transform="matrix(0.86597 -0.500096 0.86597 0.500096 435.097 718.99)" fill="white"/>
</g>
<g id="&#208;&#147;&#209;&#128;&#208;&#176;&#209;&#132;&#208;&#184;&#208;&#186;">
<rect id="Rectangle 65" width="7.94346" height="57.6217" rx="3.97173" transform="matrix(3.77083e-05 1 -0.866007 -0.500033 522.185 560.156)" fill="#191919" stroke="#1C1C1C" stroke-width="1.07419"/>
<rect id="Rectangle 66" width="7.94346" height="32.6238" rx="3.97173" transform="matrix(3.77083e-05 1 -0.866007 -0.500033 520.077 562.416)" fill="#716C6C" stroke="#716C6C" stroke-width="1.07419"/>
<rect id="Rectangle 9621" width="6.85445" height="6.82181" rx="3.4109" transform="matrix(3.77083e-05 1 -0.866007 -0.500033 518.614 563.212)" fill="#FE2B51"/>
<rect id="Rectangle 67" width="7.94346" height="57.6217" rx="3.97173" transform="matrix(3.77083e-05 1 -0.866007 -0.500033 522.185 574.916)" fill="#191919" stroke="#1C1C1C" stroke-width="1.07419"/>
<rect id="Rectangle 68" width="7.94346" height="27.5111" rx="3.97173" transform="matrix(3.77083e-05 1 -0.866007 -0.500033 519.655 576.304)" fill="#716C6C" stroke="#716C6C" stroke-width="1.07419"/>
<rect id="Rectangle 9619" width="7.94346" height="47.8667" rx="3.97173" transform="matrix(3.77083e-05 1 -0.866007 -0.500033 522.185 531.691)" fill="#191919" stroke="#1C1C1C" stroke-width="1.07419"/>
<rect id="Rectangle 9620" width="7.94346" height="37.6578" rx="3.97173" transform="matrix(3.77083e-05 1 -0.866007 -0.500033 519.654 533.079)" fill="#716C6C" stroke="#716C6C" stroke-width="1.07419"/>
<rect id="Rectangle 71" width="7.94346" height="28.3633" rx="3.97173" transform="matrix(3.77083e-05 1 -0.866007 -0.500033 523.028 546.369)" fill="#191919" stroke="#1C1C1C" stroke-width="1.07419"/>
<rect id="Rectangle 72" width="7.94346" height="17.5291" rx="3.97173" transform="matrix(3.77083e-05 1 -0.866007 -0.500033 520.498 547.838)" fill="#716C6C" stroke="#716C6C" stroke-width="1.07419"/>
</g>
<g id="Group 244627">
<g id="Group 244629">
<rect id="Rectangle 9686" opacity="0.1" x="0.930215" width="12.1609" height="29.498" rx="6.08046" transform="matrix(0.86597 -0.500096 0.86597 0.500096 556.574 416.501)" fill="white" stroke="#5B5B5B" stroke-width="1.07419"/>
<rect id="Rectangle 9687" opacity="0.4" width="9.38355" height="60.1186" rx="4.69178" transform="matrix(3.69127e-08 1 0.866137 0.499807 778.838 386.053)" fill="white"/>
<rect id="Rectangle 9688" opacity="0.1" width="9.38355" height="88.2911" rx="4.69178" transform="matrix(3.69127e-08 1 0.866137 0.499807 778.838 399.342)" fill="white"/>
<rect id="Rectangle 9689" opacity="0.1" width="9.38355" height="40.4983" rx="4.69178" transform="matrix(3.69127e-08 1 0.866137 0.499807 778.838 412.101)" fill="white"/>
<rect id="Rectangle 9690" opacity="0.1" x="0.930215" width="12.1609" height="29.498" rx="6.08046" transform="matrix(0.86597 -0.500096 0.86597 0.500096 540.451 425.87)" fill="white" stroke="#5B5B5B" stroke-width="1.07419"/>
<rect id="Rectangle 9693" opacity="0.1" x="0.930215" width="12.1609" height="29.498" rx="6.08046" transform="matrix(0.86597 -0.500096 0.86597 0.500096 523.458 435.455)" fill="white" stroke="#5B5B5B" stroke-width="1.07419"/>
<path id="Rectangle 9695" d="M702.188 442.982C690.725 436.364 672.14 436.365 660.677 442.982L601.94 463.663C601.94 488.883 600.745 579.004 600.745 583.305C600.746 588.046 604.409 591.762 609.755 594.848L662.715 625.977C674.178 632.594 692.763 632.595 704.226 625.977L754.172 597.145C759.748 593.926 763.273 590.526 763.273 584.643C763.273 577.671 763.273 474.651 763.273 464.752L702.188 442.982Z" fill="#D42343" stroke="#D42343" stroke-width="1.07419"/>
<rect id="Rectangle 9696" width="109.627" height="111.981" rx="29.5402" transform="matrix(-0.866044 0.499967 0.866044 0.499967 681.76 409.379)" fill="#FE2B51" stroke="black" stroke-width="1.07419"/>
<rect id="Rectangle 9697" opacity="0.6" width="152.212" height="155.48" rx="29.5402" transform="matrix(-0.866044 0.499967 0.866044 0.499967 681.363 399.207)" stroke="#FE2B51" stroke-width="1.07419"/>
<rect id="Rectangle 9698" opacity="0.4" width="185.111" height="189.085" rx="29.5402" transform="matrix(-0.866044 0.499967 0.866044 0.499967 680.403 388.123)" stroke="#FE2B51" stroke-width="1.07419"/>
<rect id="Rectangle 9699" opacity="0.2" width="213.49" height="218.073" rx="29.5402" transform="matrix(-0.866044 0.499967 0.866044 0.499967 681.047 377)" stroke="#FE2B51" stroke-width="1.07419"/>
</g>
<circle id="Ellipse 60" cx="39.1448" cy="39.1448" r="38.6077" transform="matrix(0.866044 0.499967 -0.866044 0.499967 682.924 425.674)" stroke="white" stroke-width="1.07419"/>
<g id="&#208;&#186;&#208;&#190;&#209;&#128;&#208;&#190;&#208;&#189;&#208;&#176;">
<g id="Group">
<circle id="Ellipse 64" cx="30.1012" cy="30.1012" r="30.1012" transform="matrix(0.866044 0.499967 -0.866044 0.499967 684.47 431.575)" fill="#FE2B51"/>
<circle id="Ellipse 65" cx="18.2243" cy="18.2243" r="18.2243" transform="matrix(0.866044 0.499967 -0.866044 0.499967 684.47 443.452)" fill="#FE2B51"/>
</g>
<g id="Subtract">
<mask id="path-35-inside-1_13422_7673" fill="white">
<path fill-rule="evenodd" clip-rule="evenodd" d="M658.845 443.215C671.175 436.097 691.166 436.097 703.496 443.215C710.547 447.286 713.562 452.802 712.55 458.111C711.796 454.13 708.778 450.266 703.492 447.214C691.162 440.096 671.172 440.096 658.842 447.214C653.563 450.261 650.545 454.119 649.786 458.093C648.783 452.79 651.802 447.281 658.845 443.215Z"/>
</mask>
<path fill-rule="evenodd" clip-rule="evenodd" d="M658.845 443.215C671.175 436.097 691.166 436.097 703.496 443.215C710.547 447.286 713.562 452.802 712.55 458.111C711.796 454.13 708.778 450.266 703.492 447.214C691.162 440.096 671.172 440.096 658.842 447.214C653.563 450.261 650.545 454.119 649.786 458.093C648.783 452.79 651.802 447.281 658.845 443.215Z" fill="#716C6C"/>
<path d="M658.845 443.215L658.307 442.285L658.307 442.285L658.845 443.215ZM703.496 443.215L704.033 442.285V442.285L703.496 443.215ZM712.55 458.111L711.494 458.311L713.605 458.312L712.55 458.111ZM703.492 447.214L704.029 446.284L704.029 446.284L703.492 447.214ZM658.842 447.214L658.305 446.284L658.305 446.284L658.842 447.214ZM649.786 458.093L648.73 458.293L650.841 458.295L649.786 458.093ZM658.845 443.215L659.382 444.145C665.345 440.703 673.228 438.951 681.17 438.951C689.112 438.951 696.996 440.703 702.959 444.145L703.496 443.215L704.033 442.285C697.666 438.609 689.389 436.802 681.17 436.802C672.951 436.802 664.674 438.609 658.307 442.285L658.845 443.215ZM703.496 443.215L702.959 444.145C709.784 448.086 712.39 453.217 711.494 457.909L712.55 458.111L713.605 458.312C714.735 452.387 711.309 446.485 704.033 442.285L703.496 443.215ZM712.55 458.111L713.605 457.911C712.775 453.525 709.486 449.434 704.029 446.284L703.492 447.214L702.955 448.144C708.07 451.098 710.817 454.736 711.494 458.311L712.55 458.111ZM703.492 447.214L704.029 446.284C697.662 442.608 689.385 440.801 681.167 440.801C672.948 440.801 664.671 442.608 658.305 446.284L658.842 447.214L659.379 448.144C665.342 444.702 673.225 442.95 681.167 442.95C689.108 442.95 696.992 444.702 702.955 448.144L703.492 447.214ZM658.842 447.214L658.305 446.284C652.856 449.429 649.567 453.513 648.731 457.892L649.786 458.093L650.841 458.295C651.523 454.725 654.27 451.093 659.379 448.144L658.842 447.214ZM649.786 458.093L650.841 457.894C649.955 453.206 652.564 448.082 659.382 444.145L658.845 443.215L658.307 442.285C651.04 446.48 647.611 452.374 648.73 458.293L649.786 458.093Z" fill="black" mask="url(#path-35-inside-1_13422_7673)"/>
</g>
<g id="Subtract_2">
<mask id="path-37-inside-2_13422_7673" fill="white">
<path fill-rule="evenodd" clip-rule="evenodd" d="M650.149 456.773C652.32 466.401 665.389 473.804 681.189 473.804C696.955 473.804 710.001 466.433 712.214 456.834C714.042 462.537 711.137 468.645 703.498 473.055C691.168 480.173 671.177 480.173 658.847 473.055C651.18 468.629 648.281 462.492 650.149 456.773Z"/>
</mask>
<path fill-rule="evenodd" clip-rule="evenodd" d="M650.149 456.773C652.32 466.401 665.389 473.804 681.189 473.804C696.955 473.804 710.001 466.433 712.214 456.834C714.042 462.537 711.137 468.645 703.498 473.055C691.168 480.173 671.177 480.173 658.847 473.055C651.18 468.629 648.281 462.492 650.149 456.773Z" fill="#716C6C"/>
<path d="M650.149 456.773L651.197 456.537L650.339 452.731L649.128 456.439L650.149 456.773ZM681.189 473.804V474.878V474.878V473.804ZM712.214 456.834L713.237 456.506L712.045 452.787L711.168 456.593L712.214 456.834ZM703.498 473.055L704.035 473.985L704.035 473.985L703.498 473.055ZM658.847 473.055L658.31 473.985L658.31 473.985L658.847 473.055ZM650.149 456.773L649.101 457.009C650.277 462.223 654.362 466.695 660.038 469.839C665.729 472.992 673.13 474.878 681.189 474.878V473.804L681.189 472.73C673.448 472.73 666.414 470.915 661.079 467.959C655.727 464.995 652.192 460.951 651.197 456.537L650.149 456.773ZM681.189 473.804V474.878C689.231 474.878 696.617 473 702.303 469.859C707.974 466.727 712.063 462.272 713.261 457.076L712.214 456.834L711.168 456.593C710.153 460.995 706.612 465.025 701.265 467.978C695.933 470.923 688.913 472.73 681.189 472.73V473.804ZM712.214 456.834L711.191 457.162C712.807 462.202 710.352 467.858 702.96 472.125L703.498 473.055L704.035 473.985C711.923 469.431 715.277 462.871 713.237 456.506L712.214 456.834ZM703.498 473.055L702.96 472.125C696.997 475.567 689.114 477.319 681.172 477.319C673.231 477.319 665.347 475.567 659.384 472.125L658.847 473.055L658.31 473.985C664.677 477.661 672.954 479.468 681.172 479.468C689.391 479.468 697.668 477.661 704.035 473.985L703.498 473.055ZM658.847 473.055L659.384 472.125C651.967 467.843 649.519 462.161 651.17 457.106L650.149 456.773L649.128 456.439C647.043 462.824 650.393 469.415 658.31 473.985L658.847 473.055Z" fill="black" mask="url(#path-37-inside-2_13422_7673)"/>
</g>
<path id="Vector 2686" d="M657.276 437.151C656.509 439.759 655.435 440.526 654.821 440.833C655.946 441.14 659.025 441.263 660.498 439.912C662.339 438.225 664.601 426.159 663.259 425.183C661.572 423.956 660.038 424.57 659.27 426.257C658.503 427.945 657.896 435.043 657.276 437.151Z" fill="#D9D9D9" stroke="black" stroke-width="1.07419"/>
<path id="Vector 2689" d="M706.012 437.151C706.779 439.759 707.853 440.526 708.466 440.833C707.341 441.14 704.262 441.263 702.79 439.912C700.948 438.225 698.686 426.159 700.028 425.183C701.716 423.956 703.25 424.57 704.017 426.257C704.784 427.945 705.392 435.043 706.012 437.151Z" fill="#D9D9D9" stroke="black" stroke-width="1.07419"/>
<path id="Vector 2687" d="M681.21 455.062C678.584 455.062 678.449 461.847 676.301 466.143C679.574 466.041 686.158 466.844 685.66 465.683C683.358 460.313 683.819 455.062 681.21 455.062Z" fill="#FBF5FF" stroke="black" stroke-width="1.07419"/>
<path id="Vector 2688" d="M682.285 419.353C679.658 419.353 679.37 425.643 677.222 429.939C680.495 429.837 687.913 430.456 687.348 429.326C684.74 424.109 684.893 419.353 682.285 419.353Z" fill="#D9D9D9" stroke="black" stroke-width="1.07419"/>
<g id="Vector 2684">
<path d="M661.878 424.876C658.81 425.534 660.651 439.452 656.355 440.526C652.476 441.496 649.604 437.212 649.604 442.52V455.715C649.604 455.715 651.906 438.378 681.133 438.378C710.361 438.378 712.663 455.562 712.663 455.562V442.06C712.663 436.233 709.14 442.665 706.372 440.526C702.997 437.918 704.224 425.95 701.309 424.876C698.394 423.802 695.019 435.309 691.183 434.389C687.59 433.526 685.353 421.194 682.284 421.041C679.216 420.887 677.528 433.622 673.079 434.389C669.089 435.076 664.947 424.219 661.878 424.876Z" fill="#716C6C"/>
<path d="M649.604 456.022V442.52C649.604 437.212 652.476 441.496 656.355 440.526C660.651 439.452 658.81 425.534 661.878 424.876C664.947 424.219 669.089 435.076 673.079 434.389C677.528 433.622 679.216 420.887 682.284 421.041C685.353 421.194 687.59 433.526 691.183 434.389C695.019 435.309 698.394 423.802 701.309 424.876C704.224 425.95 702.997 437.918 706.372 440.526C709.14 442.665 712.663 436.233 712.663 442.06V455.562C712.663 455.562 710.361 438.378 681.133 438.378C651.906 438.378 649.604 455.715 649.604 455.715" stroke="black" stroke-width="1.07419"/>
</g>
<g id="Vector 2685">
<path d="M653.286 452.8C655.239 459.914 657.787 462.108 659.117 462.619C660.395 463.437 662.277 465.381 658.35 464.153C653.44 462.619 651.752 455.254 650.678 452.339C649.56 449.302 649.144 440.986 650.064 440.065C650.678 439.452 651.701 439.861 652.059 440.065C651.445 441.599 651.138 444.975 653.286 452.8Z" fill="#FBF5FF"/>
<path d="M664.333 452.646C663.439 452.646 662.594 453.669 662.185 454.18C663.412 458.118 667.095 467.345 670.777 470.29C675.38 473.973 679.026 467.727 675.84 468.296C671.544 469.063 670.47 466.301 667.862 456.942C666.776 453.047 665.56 452.646 664.333 452.646Z" fill="#FBF5FF"/>
<path d="M653.286 452.8C655.239 459.914 657.787 462.108 659.117 462.619C660.395 463.437 662.277 465.381 658.35 464.153C653.44 462.619 651.752 455.254 650.678 452.339C649.56 449.302 649.144 440.986 650.064 440.065C650.678 439.452 651.701 439.861 652.059 440.065C651.445 441.599 651.138 444.975 653.286 452.8Z" stroke="black" stroke-width="1.07419"/>
<path d="M664.333 452.646C663.439 452.646 662.594 453.669 662.185 454.18C663.412 458.118 667.095 467.345 670.777 470.29C675.38 473.973 679.026 467.727 675.84 468.296C671.544 469.063 670.47 466.301 667.862 456.942C666.776 453.047 665.56 452.646 664.333 452.646Z" stroke="black" stroke-width="1.07419"/>
</g>
<path id="Vector 2691" d="M708.884 452.663C706.931 459.777 704.383 461.971 703.054 462.482C701.775 463.3 699.893 465.244 703.821 464.016C708.731 462.482 710.418 455.118 711.492 452.203C712.611 449.165 713.124 440.678 712.203 439.758C711.589 439.144 710.567 439.86 710.209 440.065C710.823 441.599 711.032 444.838 708.884 452.663Z" fill="#FBF5FF" stroke="black" stroke-width="1.07419"/>
<path id="Vector 2690" d="M697.782 452.492C699.187 452.492 699.623 453.412 700.083 454.333C698.856 458.271 695.149 467.361 691.467 470.307C686.864 473.989 683.218 467.743 686.404 468.312C690.7 469.079 691.774 466.317 694.382 456.958C695.468 453.064 696.697 452.492 697.782 452.492Z" fill="#FBF5FF" stroke="black" stroke-width="1.07419"/>
<path id="Vector 2683" d="M649.604 442.061V456.637C649.604 456.637 649.911 474.741 682.438 474.741C712.663 474.741 712.663 456.176 712.663 456.176V442.061C712.356 449.272 708.366 463.541 703.764 463.694C701.443 463.772 701.309 453.108 698.701 453.108C695.018 453.108 695.325 468.604 690.262 468.604C683.315 468.604 684.755 457.097 681.21 457.097C677.988 457.097 677.694 469.487 672.311 469.218C666.174 468.911 667.402 453.415 663.72 453.108C660.751 452.861 659.883 463.86 657.736 463.694C655.741 463.541 653.855 460.538 651.906 454.335C650.218 448.965 649.655 445.283 649.604 442.061Z" fill="#E8E8CF" stroke="black" stroke-width="1.07419" stroke-linejoin="round"/>
<path id="Ellipse 66" d="M681.464 466.344C682.82 466.344 684.05 467.649 684.05 469.43C684.05 471.212 682.82 472.516 681.464 472.516C680.107 472.516 678.878 471.212 678.878 469.43C678.878 467.649 680.107 466.345 681.464 466.344Z" fill="#FE2B51" stroke="black" stroke-width="1.07419"/>
</g>
<circle id="Ellipse 67" cx="49.7394" cy="49.7394" r="49.7394" transform="matrix(0.866044 0.499967 -0.866044 0.499967 682.203 398.705)" stroke="white" stroke-width="1.07419" stroke-linecap="round" stroke-linejoin="round" stroke-dasharray="4.83 4.83"/>
</g>
<g id="Group 244628">
<rect id="Rectangle 9699_2" y="0.397936" width="52.9984" height="52.9984" rx="15.5205" transform="matrix(-0.866044 0.499967 0.866044 0.499967 621.83 621.766)" fill="black" stroke="#ADABAB" stroke-width="0.795924"/>
<rect id="Rectangle 9703" y="0.397936" width="52.9984" height="52.9984" rx="15.5205" transform="matrix(-0.866044 0.499967 0.866044 0.499967 566.195 589.541)" fill="black" stroke="#716C6C" stroke-width="0.795924"/>
<rect id="Rectangle 9700_2" y="0.397936" width="52.9984" height="52.9984" rx="15.5205" transform="matrix(-0.866044 0.499967 0.866044 0.499967 678.179 653.992)" fill="black" stroke="#ADABAB" stroke-width="0.795924"/>
<rect id="Rectangle 9701_2" y="0.397936" width="52.9984" height="52.9984" rx="15.5205" transform="matrix(-0.866044 0.499967 0.866044 0.499967 567.269 653.454)" fill="black" stroke="#ADABAB" stroke-width="0.795924"/>
<rect id="Rectangle 9702" y="0.397936" width="52.9984" height="52.9984" rx="15.5205" transform="matrix(-0.866044 0.499967 0.866044 0.499967 514.097 684.876)" fill="black" stroke="#716C6C" stroke-width="0.795924"/>
<rect id="Rectangle 9706" y="0.397936" width="52.9984" height="52.9984" rx="15.5205" transform="matrix(-0.866044 0.499967 0.866044 0.499967 787.21 590.884)" fill="black" stroke="#716C6C" stroke-width="0.795924"/>
<rect id="Rectangle 9707" y="0.397936" width="52.9984" height="52.9984" rx="15.5205" transform="matrix(-0.866044 0.499967 0.866044 0.499967 732.963 622.035)" fill="black" stroke="#716C6C" stroke-width="0.795924"/>
<rect id="Rectangle 9704" y="0.397936" width="52.9984" height="52.9984" rx="15.5205" transform="matrix(-0.866044 0.499967 0.866044 0.499967 510.874 620.96)" fill="black" stroke="#716C6C" stroke-width="0.795924"/>
<rect id="Rectangle 9705" y="0.397936" width="52.9984" height="52.9984" rx="15.5205" transform="matrix(-0.866044 0.499967 0.866044 0.499967 457.165 651.844)" fill="black" stroke="#716C6C" stroke-width="0.795924"/>
</g>
<g id="Group 244632">
<g id="Group 244626">
<path id="Rectangle 21" d="M632.066 690.287C624.452 685.891 612.107 685.891 604.493 690.287L579.767 695.361C579.767 700.833 579.738 713.073 579.767 715.976C579.796 718.834 581.7 721.687 585.477 723.868L604.493 734.846C612.107 739.241 624.452 739.241 632.066 734.846L651.082 723.868C654.859 721.687 656.763 718.834 656.792 715.976C656.821 713.073 656.792 702.127 656.792 695.361L632.066 690.287Z" fill="#716C6C"/>
<rect id="Rectangle 22" y="0.397936" width="52.9984" height="52.9984" rx="15.5205" transform="matrix(-0.866044 0.499967 0.866044 0.499967 617.935 669.031)" fill="#FE2B51" stroke="#716C6C" stroke-width="0.795924"/>
<g id="Vector 2680">
<path d="M601.557 699.305C603.738 700.564 606.145 700.379 608.283 701.65C610.302 702.85 609.133 703.21 612.027 705.349C614.92 707.489 623.318 705.714 627.188 704.579C626.681 703.431 625.49 701.401 628.838 698.938C631.739 696.803 636.518 696.949 638.676 697.218C638.908 696.326 639.117 693.736 636.135 692.014C633.153 690.293 630.488 690.366 628.648 689.304C627 688.353 627.757 686.521 623.067 684.91C620.58 684.056 614.501 682.895 608.537 686.338C599.463 691.576 599.461 698.095 601.557 699.305Z" fill="#E8E8CF"/>
<path d="M637.023 686.52C632.835 686.593 630.678 687.839 630.234 688.388C631.186 688.791 633.208 689.602 636.642 689.743C639.485 689.861 642.691 688.547 643.939 687.875C643.03 687.399 640.373 686.461 637.023 686.52Z" fill="#E8E8CF"/>
</g>
</g>
<g id="Group 244626_2">
<path id="Rectangle 21_2" d="M581.052 538.747C573.438 534.351 561.094 534.351 553.48 538.747L528.754 543.821C528.754 549.293 528.696 614.986 528.725 617.889C528.754 620.747 530.658 623.6 534.435 625.781L553.451 636.759C561.065 641.154 573.41 641.154 581.023 636.759L600.039 625.781C603.817 623.6 605.72 620.747 605.749 617.889C605.779 614.986 605.778 550.587 605.778 543.821L581.052 538.747Z" fill="#716C6C"/>
<rect id="Rectangle 22_2" y="0.397936" width="52.9984" height="52.9984" rx="15.5205" transform="matrix(-0.866044 0.499967 0.866044 0.499967 566.923 517.3)" fill="black" stroke="#716C6C" stroke-width="0.795924"/>
<g id="Group 244499">
<path id="Vector" d="M547.792 552.435C548.196 552.202 548.851 552.202 549.254 552.435C549.658 552.668 549.658 553.046 549.254 553.279L546.589 554.818C546.185 555.051 545.53 555.051 545.127 554.818C544.723 554.585 544.723 554.207 545.127 553.974L547.792 552.435Z" fill="#716C6C"/>
<path id="Vector_2" d="M586.463 532.831C586.867 532.598 587.521 532.598 587.925 532.831C588.329 533.064 588.329 533.442 587.925 533.675L585.259 535.214C584.856 535.447 584.201 535.447 583.798 535.214C583.394 534.981 583.394 534.603 583.798 534.37L586.463 532.831Z" fill="#716C6C"/>
<path id="Vector_3" d="M550.06 534.638C550.463 534.871 550.463 535.249 550.06 535.482C549.656 535.715 549.001 535.715 548.598 535.482L545.932 533.943C545.528 533.71 545.528 533.332 545.932 533.099C546.336 532.866 546.99 532.866 547.394 533.099L550.06 534.638Z" fill="#716C6C"/>
<path id="Vector_4" d="M587.979 554.458C588.383 554.691 588.383 555.068 587.979 555.301C587.575 555.535 586.921 555.535 586.517 555.301L583.851 553.763C583.448 553.53 583.448 553.152 583.851 552.919C584.255 552.686 584.909 552.686 585.313 552.919L587.979 554.458Z" fill="#716C6C"/>
<circle id="Ellipse 10" cx="15.5073" cy="15.5073" r="14.9703" transform="matrix(0.866025 0.5 -0.866063 0.499935 567.549 528.797)" stroke="#716C6C" stroke-width="1.07419"/>
<g id="Group 244430">
<g id="Ellipse 8">
<mask id="path-70-inside-3_13422_7673" fill="white">
<path d="M579.512 549.708C573.107 553.406 562.724 553.406 556.32 549.708C553.135 547.87 551.534 545.463 551.517 543.054C551.499 540.618 551.517 538.974 551.517 534.895C557.921 531.197 577.897 531.198 584.301 534.895C584.301 539.454 584.482 540.853 584.301 543.404C584.138 545.696 582.542 547.959 579.512 549.708Z"/>
</mask>
<path d="M579.512 549.708C573.107 553.406 562.724 553.406 556.32 549.708C553.135 547.87 551.534 545.463 551.517 543.054C551.499 540.618 551.517 538.974 551.517 534.895C557.921 531.197 577.897 531.198 584.301 534.895C584.301 539.454 584.482 540.853 584.301 543.404C584.138 545.696 582.542 547.959 579.512 549.708Z" fill="#716C6C" stroke="black" stroke-width="2.14838" mask="url(#path-70-inside-3_13422_7673)"/>
</g>
<circle id="Ellipse 9" cx="13.3897" cy="13.3897" r="12.8526" transform="matrix(0.866044 0.499967 -0.866044 0.499967 567.916 521.937)" fill="#E8E8CF" stroke="black" stroke-width="1.07419"/>
<g id="Group_2">
<path id="Vector_5" d="M569.846 531.177C571.137 530.431 573.23 530.431 574.521 531.177C575.812 531.922 575.812 533.13 574.521 533.876L566.339 538.599C565.048 539.344 562.955 539.344 561.664 538.599C560.373 537.854 560.373 536.645 561.664 535.9L569.846 531.177Z" fill="black"/>
</g>
</g>
</g>
</g>
<g id="Group 244631">
<path id="Rectangle 23" d="M525.003 607.093C517.389 602.698 505.045 602.698 497.431 607.093L472.705 612.168C472.705 617.64 472.675 645.519 472.705 648.421C472.734 651.28 474.637 654.133 478.415 656.314L497.431 667.292C505.045 671.687 517.389 671.687 525.003 667.292L544.019 656.314C547.797 654.133 549.7 651.28 549.729 648.422C549.759 645.519 549.729 618.933 549.729 612.168L525.003 607.093Z" fill="#716C6C"/>
<rect id="Rectangle 24" y="0.397936" width="52.9984" height="52.9984" rx="15.5205" transform="matrix(-0.866044 0.499967 0.866044 0.499967 510.872 585.243)" fill="black" stroke="#716C6C" stroke-width="0.795924"/>
<path id="Vector 2838" d="M515.908 599.277C519.388 600.48 519.557 604.722 514.66 605.573C510.692 606.262 501.254 609.463 503.222 610.686C504.942 611.754 513.786 604.087 520.607 604.648C525.968 605.09 532.96 609.079 528.932 615.256C528.886 615.327 529.466 615.793 529.466 615.793C530.091 616.182 529.454 619.492 529.244 619.605C527.829 620.369 526.008 621.325 524.669 622.065C523.928 622.466 523.747 622.249 523.302 622.078C522.389 621.619 520.686 620.639 520.686 620.639C515.744 622.935 511.251 623.517 510.176 623.548C508.679 623.59 506.177 624.091 503.387 622.466C500.597 620.841 500.487 617.528 504.092 617.064C507.696 616.599 520.942 614.926 519.26 613.513C517.779 612.268 513.624 614.769 506.489 616.067C498.93 617.443 495.578 615.599 493.956 614.337C491.199 612.192 492.401 606.537 495.364 604.917C495.364 604.916 494.205 605.645 493.736 605.354C493.736 605.354 493.35 605.19 493.349 604.789C493.349 604.38 493.35 602.097 493.35 602.097L497.507 602.198C497.507 602.198 498.091 601.878 498.449 601.882C498.806 601.885 499.337 602.217 499.337 602.217L502.077 603.595C503.468 603.018 507.45 601.704 509.985 601.372C512.974 600.979 514.731 598.871 515.908 599.277Z" stroke="#716C6C" stroke-width="1.61128" stroke-linejoin="round"/>
<path id="Vector 2839" d="M514.66 602.081C519.557 601.23 518.848 599.29 515.368 598.088C514.191 597.681 512.974 597.488 509.985 597.88C507.45 598.213 503.468 599.526 502.077 600.104L499.337 598.726C499.337 598.726 498.806 598.394 498.449 598.39C498.091 598.387 497.507 598.707 497.507 598.707L493.374 601.09C493.374 601.09 492.86 601.371 492.812 601.701C492.754 602.097 493.199 602.265 493.199 602.265C493.668 602.557 495.651 603.572 495.65 603.573C492.688 605.192 491.199 608.7 493.956 610.846C495.578 612.108 498.93 613.952 506.489 612.576C513.624 611.277 517.779 608.777 519.26 610.021C520.942 611.434 509.477 615.189 505.872 615.653C502.268 616.117 500.597 617.35 503.387 618.975C506.177 620.6 508.679 620.099 510.176 620.056C511.252 620.026 515.744 619.444 520.686 617.147C520.686 617.147 522.389 618.127 523.302 618.587C523.747 618.758 523.928 618.975 524.669 618.574C526.008 617.834 527.829 616.878 529.244 616.114C529.454 616 530.091 615.559 529.466 615.171C529.466 615.171 526.478 613.625 526.544 613.572C533.283 608.244 526.563 604.424 521.202 603.983C514.381 603.421 504.942 608.263 503.222 607.194C501.254 605.972 510.692 602.771 514.66 602.081Z" fill="#716C6C"/>
</g>
<g id="Group 244590">
<path id="Rectangle 21_3" d="M470.393 658.674C462.78 654.278 450.435 654.278 442.821 658.674L418.095 663.748C418.095 669.22 418.066 677.997 418.095 680.899C418.124 683.758 420.028 686.611 423.805 688.792L442.821 699.769C450.435 704.165 462.78 704.165 470.393 699.769L489.409 688.792C493.187 686.611 495.09 683.758 495.119 680.899C495.149 677.997 495.12 670.513 495.12 663.748L470.393 658.674Z" fill="#716C6C"/>
<rect id="Rectangle 22_3" y="0.397936" width="52.9984" height="52.9984" rx="15.5205" transform="matrix(-0.866044 0.499967 0.866044 0.499967 456.263 637.34)" fill="black" stroke="#716C6C" stroke-width="0.795924"/>
</g>
<g id="Group 244627_2">
<path id="Rectangle 21_4" d="M528.113 670.067C520.499 665.671 508.155 665.671 500.541 670.067L475.815 675.141C475.815 680.613 475.786 708.631 475.815 711.534C475.845 714.392 477.748 717.245 481.526 719.426L500.542 730.404C508.155 734.8 520.5 734.8 528.114 730.404L547.13 719.426C550.908 717.245 552.811 714.392 552.84 711.534C552.87 708.631 552.839 681.907 552.839 675.141L528.113 670.067Z" fill="#716C6C"/>
<rect id="Rectangle 22_4" y="0.397936" width="52.9984" height="52.9984" rx="15.5205" transform="matrix(-0.866044 0.499967 0.866044 0.499967 513.984 649.157)" fill="black" stroke="#716C6C" stroke-width="0.795924"/>
<rect id="Rectangle 6" y="0.80559" width="34.6507" height="28.6739" rx="7.78787" transform="matrix(0.866044 0.499967 -0.866044 0.499967 512.51 657.954)" stroke="#716C6C" stroke-width="1.61128"/>
<path id="Vector 2" d="M508.953 660.95C508.953 660.95 508.772 666.653 508.476 672.049C508.323 674.824 508.076 675.319 509.787 676.307C511.498 677.295 515.171 677.242 520.104 677.171C530.586 677.021 537.215 676.926 537.215 676.926" stroke="#716C6C" stroke-width="1.61128" stroke-linecap="round"/>
</g>
<g id="Group 244634">
<path id="Rectangle 21_5" d="M801.326 561.17C793.712 556.775 781.368 556.775 773.754 561.17L749.028 565.171C749.028 570.643 748.999 615.176 749.028 618.079C749.057 620.937 750.961 623.79 754.738 625.971L773.754 636.949C781.368 641.344 793.713 641.344 801.326 636.949L820.342 625.971C824.12 623.79 826.023 620.937 826.053 618.079C826.082 615.176 826.052 573.01 826.052 566.245L801.326 561.17Z" fill="#716C6C"/>
<rect id="Rectangle 22_5" y="0.397936" width="52.9984" height="52.9984" rx="15.5205" transform="matrix(-0.866044 0.499967 0.866044 0.499967 787.195 538.246)" fill="black" stroke="#716C6C" stroke-width="0.795924"/>
<g id="Vector_6">
<path d="M786.223 557.651C786.604 557.671 787.029 557.919 787.029 557.919L800.258 565.64C800.258 565.64 800.889 565.947 800.591 566.244C800.322 566.513 799.919 566.736 799.919 566.736L795.049 569.559C790.922 571.951 784.231 571.951 780.105 569.559C775.978 567.167 775.978 563.289 780.105 560.897L785.283 557.895C785.283 557.895 785.686 557.622 786.223 557.651Z" fill="#716C6C"/>
<path d="M780.183 555.772C781.112 555.234 782.618 555.234 783.547 555.772C784.476 556.311 784.476 557.184 783.547 557.722L776.779 561.645C775.85 562.184 774.344 562.184 773.415 561.645C772.486 561.106 772.486 560.233 773.415 559.695L780.183 555.772Z" fill="#716C6C"/>
<path d="M796.393 554.092C796.527 553.689 796.928 553.347 797.637 553.488C798.308 553.623 798.308 554.16 798.139 554.486L796.965 558.054C796.921 558.186 797.023 558.568 796.025 558.457C795.452 558.393 795.176 557.792 795.22 557.66L796.393 554.092Z" fill="#716C6C"/>
<path d="M806.767 560.202C806.995 560.177 807.573 559.947 807.573 559.262C807.573 558.725 806.791 558.779 806.563 558.804L800.054 559.531C799.826 559.556 799.382 559.799 799.516 560.202C799.651 560.605 800.03 560.954 800.258 560.929L806.767 560.202Z" fill="#716C6C"/>
<path d="M784.486 568.561C785.415 568.023 786.921 568.023 787.85 568.561C788.779 569.1 788.779 569.973 787.85 570.511L781.082 574.434C780.153 574.973 778.647 574.973 777.718 574.434C776.789 573.896 776.789 573.023 777.718 572.484L784.486 568.561Z" fill="#716C6C"/>
<path d="M800.535 557.66C794.973 554.436 790.061 555.599 788.103 556.308C787.572 556.501 787.432 556.741 787.432 556.845C787.432 557.114 787.969 557.382 787.969 557.382L801.311 565.094C801.311 565.094 801.617 565.314 801.933 565.305C802.304 565.293 802.475 565.16 802.873 564.767C804.115 563.543 805.89 560.764 800.535 557.66Z" fill="#716C6C"/>
<path d="M778.344 565.137C779.273 564.599 780.779 564.599 781.708 565.137C782.637 565.676 782.637 566.549 781.708 567.087L774.941 571.01C774.011 571.549 772.505 571.549 771.576 571.01C770.647 570.472 770.647 569.599 771.576 569.06L778.344 565.137Z" fill="#716C6C"/>
<path d="M800.408 567.495C801.337 566.957 802.843 566.957 803.772 567.495C804.701 568.034 804.701 568.907 803.772 569.445L797.005 573.368C796.076 573.907 794.569 573.907 793.64 573.368C792.711 572.83 792.711 571.957 793.64 571.418L800.408 567.495Z" fill="#716C6C"/>
</g>
</g>
<g id="Group 244633">
<path id="Rectangle 9703_2" d="M746.824 613.269C739.21 608.874 726.865 608.874 719.252 613.269L694.649 618.21C694.649 623.682 694.496 646.204 694.525 649.107C694.555 651.965 696.458 654.818 700.236 656.999L719.252 667.977C726.865 672.373 739.21 672.373 746.824 667.977L765.84 656.999C769.617 654.818 771.521 651.965 771.55 649.107C771.579 646.204 771.55 625.109 771.55 618.344L746.824 613.269Z" fill="#716C6C"/>
<rect id="Rectangle 9702_2" y="0.397936" width="52.9984" height="52.9984" rx="15.5205" transform="matrix(-0.866044 0.499967 0.866044 0.499967 732.773 591.687)" fill="black" stroke="#716C6C" stroke-width="0.795924"/>
<g id="Group 244477">
<path id="Rectangle 44" d="M737.263 605.354C732.331 602.507 724.037 602.679 718.738 605.738L714.823 607.984C709.523 611.043 709.225 615.831 714.157 618.678C719.088 621.525 708.352 622.962 708.352 622.962L724.404 624.526L731.497 628.469C736.428 631.316 744.722 631.144 750.021 628.084L753.937 625.839C759.236 622.78 759.534 617.992 754.603 615.145L737.263 605.354Z" stroke="#716C6C" stroke-width="1.61128" stroke-linejoin="round"/>
<g id="Group 244431">
<circle id="Ellipse 9_2" cx="4.03088" cy="4.03088" r="3.22524" transform="matrix(-0.866044 0.499967 0.866044 0.499967 723.669 607.474)" fill="black" stroke="#716C6C" stroke-width="1.61128"/>
</g>
<g id="Group 244430_2">
<circle id="Ellipse 9_3" cx="4.03088" cy="4.03088" r="3.22524" transform="matrix(-0.866044 0.499967 0.866044 0.499967 733.418 612.792)" fill="black" stroke="#716C6C" stroke-width="1.61128"/>
</g>
<circle id="Ellipse 9_4" cx="4.03088" cy="4.03088" r="3.22524" transform="matrix(-0.866044 0.499967 0.866044 0.499967 743.612 618.554)" fill="black" stroke="#716C6C" stroke-width="1.61128"/>
</g>
</g>
</g>
</g>
</g>
<g id="Frame 1597882263">
<rect id="Rectangle 9935" x="980" y="332" width="662" height="2" fill="#333333"/>
<text id="&#208;&#148;&#208;&#190;&#209;&#133;&#208;&#190;&#208;&#180; &#208;&#190;&#209;&#130;&#194;&#160;&#208;&#191;&#209;&#128;&#208;&#190;&#208;&#181;&#208;&#186;&#209;&#130;&#208;&#190;&#208;&#178;" fill="white" style="white-space: pre" xml:space="preserve" font-family="Onest" font-size="32" letter-spacing="0em"><tspan x="980" y="392.64">&#x414;&#x43e;&#x445;&#x43e;&#x434; &#x43e;&#x442;&#xa0;&#x43f;&#x440;&#x43e;&#x435;&#x43a;&#x442;&#x43e;&#x432;</tspan></text>
<text id="&#208;&#167;&#208;&#181;&#208;&#188;&#194;&#160;&#208;&#176;&#208;&#186;&#209;&#130;&#208;&#184;&#208;&#178;&#208;&#189;&#208;&#181;&#208;&#181; &#208;&#191;&#209;&#128;&#208;&#190;&#208;&#181;&#208;&#186;&#209;&#130;&#209;&#139; &#208;&#178;&#194;&#160;&#208;&#191;&#208;&#187;&#208;&#176;&#209;&#130;&#209;&#132;&#208;&#190;&#209;&#128;&#208;&#188;&#208;&#181;, &#209;&#130;&#208;&#181;&#208;&#188;&#194;&#160;&#208;&#178;&#209;&#139;&#209;&#136;&#208;&#181; &#208;&#183;&#208;&#176;&#209;&#128;&#208;&#176;&#208;&#177;&#208;&#190;&#209;&#130;&#208;&#190;&#208;&#186;." fill="#999999" style="white-space: pre" xml:space="preserve" font-family="Onest" font-size="20" letter-spacing="0em"><tspan x="980" y="450.65">&#x427;&#x435;&#x43c;&#xa0;&#x430;&#x43a;&#x442;&#x438;&#x432;&#x43d;&#x435;&#x435; &#x43f;&#x440;&#x43e;&#x435;&#x43a;&#x442;&#x44b; &#x432;&#xa0;&#x43f;&#x43b;&#x430;&#x442;&#x444;&#x43e;&#x440;&#x43c;&#x435;, &#x442;&#x435;&#x43c;&#xa0;&#x432;&#x44b;&#x448;&#x435; &#x437;&#x430;&#x440;&#x430;&#x431;&#x43e;&#x442;&#x43e;&#x43a;.</tspan></text>
<rect id="Rectangle 9935_2" x="980" y="482" width="662" height="2" fill="#333333"/>
<text id="&#208;&#160;&#208;&#176;&#209;&#129;&#209;&#136;&#208;&#184;&#209;&#128;&#208;&#181;&#208;&#189;&#208;&#184;&#208;&#181; &#209;&#131;&#209;&#129;&#208;&#187;&#209;&#131;&#208;&#179;" fill="white" style="white-space: pre" xml:space="preserve" font-family="Onest" font-size="32" letter-spacing="0em"><tspan x="980" y="542.64">&#x420;&#x430;&#x441;&#x448;&#x438;&#x440;&#x435;&#x43d;&#x438;&#x435; &#x443;&#x441;&#x43b;&#x443;&#x433;</tspan></text>
<text id="&#208;&#159;&#208;&#187;&#208;&#176;&#209;&#130;&#209;&#132;&#208;&#190;&#209;&#128;&#208;&#188;&#208;&#176; &#208;&#183;&#208;&#176;&#208;&#186;&#209;&#128;&#209;&#139;&#208;&#178;&#208;&#176;&#208;&#181;&#209;&#130; &#208;&#191;&#209;&#128;&#208;&#190;&#208;&#180;&#208;&#178;&#208;&#184;&#208;&#182;&#208;&#181;&#208;&#189;&#208;&#184;&#208;&#181; &#208;&#178;&#194;&#160;&#208;&#191;&#208;&#190;&#208;&#184;&#209;&#129;&#208;&#186;&#208;&#181; &#208;&#184;&#194;&#160;&#209;&#128;&#208;&#176;&#208;&#177;&#208;&#190;&#209;&#130;&#209;&#131; &#209;&#129;&#194;&#160;&#209;&#128;&#208;&#181;&#208;&#185;&#209;&#130;&#208;&#184;&#208;&#189;&#208;&#179;&#208;&#176;&#208;&#188;&#208;&#184;." fill="#999999" style="white-space: pre" xml:space="preserve" font-family="Onest" font-size="20" letter-spacing="0em"><tspan x="980" y="600.65">&#x41f;&#x43b;&#x430;&#x442;&#x444;&#x43e;&#x440;&#x43c;&#x430; &#x437;&#x430;&#x43a;&#x440;&#x44b;&#x432;&#x430;&#x435;&#x442; &#x43f;&#x440;&#x43e;&#x434;&#x432;&#x438;&#x436;&#x435;&#x43d;&#x438;&#x435; &#x432;&#xa0;&#x43f;&#x43e;&#x438;&#x441;&#x43a;&#x435; &#x438;&#xa0;&#x440;&#x430;&#x431;&#x43e;&#x442;&#x443; </tspan><tspan x="980" y="628.65">&#x441;&#xa0;&#x440;&#x435;&#x439;&#x442;&#x438;&#x43d;&#x433;&#x430;&#x43c;&#x438;.</tspan></text>
<rect id="Rectangle 9935_3" x="980" y="660" width="662" height="2" fill="#333333"/>
<text id="&#208;&#147;&#208;&#184;&#208;&#177;&#208;&#186;&#208;&#184;&#208;&#185; &#209;&#132;&#208;&#190;&#209;&#128;&#208;&#188;&#208;&#176;&#209;&#130; &#209;&#128;&#208;&#176;&#208;&#177;&#208;&#190;&#209;&#130;&#209;&#139;" fill="white" style="white-space: pre" xml:space="preserve" font-family="Onest" font-size="32" letter-spacing="0em"><tspan x="980" y="720.64">&#x413;&#x438;&#x431;&#x43a;&#x438;&#x439; &#x444;&#x43e;&#x440;&#x43c;&#x430;&#x442; &#x440;&#x430;&#x431;&#x43e;&#x442;&#x44b;</tspan></text>
<text id="&#208;&#146;&#208;&#181;&#208;&#180;&#208;&#184;&#209;&#130;&#208;&#181; &#208;&#191;&#209;&#128;&#208;&#184;&#208;&#187;&#208;&#190;&#208;&#182;&#208;&#181;&#208;&#189;&#208;&#184;&#209;&#143; &#209;&#129;&#208;&#176;&#208;&#188;&#208;&#190;&#209;&#129;&#209;&#130;&#208;&#190;&#209;&#143;&#209;&#130;&#208;&#181;&#208;&#187;&#209;&#140;&#208;&#189;&#208;&#190; &#208;&#184;&#208;&#187;&#208;&#184;&#194;&#160;&#208;&#191;&#208;&#190;&#208;&#180;&#208;&#186;&#208;&#187;&#209;&#142;&#209;&#135;&#208;&#176;&#208;&#185;&#209;&#130;&#208;&#181; &#208;&#186;&#208;&#187;&#208;&#184;&#208;&#181;&#208;&#189;&#209;&#130;&#208;&#190;&#208;&#178; &#208;&#186;&#194;&#160;&#208;&#191;&#208;&#187;&#208;&#176;&#209;&#130;&#209;&#132;&#208;&#190;&#209;&#128;&#208;&#188;&#208;&#181;." fill="#999999" style="white-space: pre" xml:space="preserve" font-family="Onest" font-size="20" letter-spacing="0em"><tspan x="980" y="778.65">&#x412;&#x435;&#x434;&#x438;&#x442;&#x435; &#x43f;&#x440;&#x438;&#x43b;&#x43e;&#x436;&#x435;&#x43d;&#x438;&#x44f; &#x441;&#x430;&#x43c;&#x43e;&#x441;&#x442;&#x43e;&#x44f;&#x442;&#x435;&#x43b;&#x44c;&#x43d;&#x43e; &#x438;&#x43b;&#x438;&#xa0;&#x43f;&#x43e;&#x434;&#x43a;&#x43b;&#x44e;&#x447;&#x430;&#x439;&#x442;&#x435; &#x43a;&#x43b;&#x438;&#x435;&#x43d;&#x442;&#x43e;&#x432; </tspan><tspan x="980" y="806.65">&#x43a;&#xa0;&#x43f;&#x43b;&#x430;&#x442;&#x444;&#x43e;&#x440;&#x43c;&#x435;.</tspan></text>
<rect id="Rectangle 9936" x="980" y="838" width="662" height="2" fill="#333333"/>
</g>
</g>
</g>
</g>
</svg>
